<?xml version="1.0" encoding="iso-8859-1"?>
<!-- Uploaded to: SVG Repo, www.svgrepo.com, Generator: SVG Repo Mixer Tools -->
<svg xmlns="http://www.w3.org/2000/svg" xmlns:xlink="http://www.w3.org/1999/xlink" version="1.1" id="Capa_1"  viewBox="0 0 460 460" xml:space="preserve" width="512" height="512">
<g id="XMLID_1144_">
	<path id="XMLID_1139_" style="fill:#323436;" d="M120,460h-20l-10-39.984h40L120,460z M370,420.016h-40L340,460h20L370,420.016z"/>
	<path id="XMLID_1138_" style="fill:#4A4C4E;" d="M239.758,19.726l-14.365,39.451c-0.756,2.075-3.051,3.145-5.127,2.39l-0.94-0.342   l-20.521,56.359l-37.588-13.675l20.521-56.359l-0.94-0.342c-2.076-0.755-3.146-3.05-2.391-5.125l14.365-39.451   c0.756-2.075,3.051-3.145,5.127-2.39l39.467,14.359C239.443,15.356,240.513,17.651,239.758,19.726z M118.703,176.827   l-11.567,31.767c-0.584,1.603,0.243,3.376,1.847,3.959l0,0c1.1,0.4,1.879,1.387,2.013,2.549l0.842,7.309   c0.134,1.162,0.913,2.149,2.013,2.549l5.808,2.113c1.1,0.4,2.332,0.145,3.181-0.66l5.345-5.059c0.85-0.804,2.082-1.06,3.181-0.66   l0,0c1.604,0.583,3.377-0.243,3.961-1.846l11.567-31.767c0.584-1.603-0.243-3.376-1.847-3.959l-22.383-8.143   C121.06,174.398,119.287,175.224,118.703,176.827z M156.291,190.502l-11.567,31.767c-0.584,1.603,0.243,3.376,1.847,3.959l0,0   c1.1,0.4,1.879,1.387,2.013,2.549l0.842,7.309c0.134,1.162,0.913,2.149,2.013,2.549l5.808,2.113c1.1,0.4,2.332,0.145,3.181-0.66   l5.345-5.059c0.85-0.804,2.082-1.06,3.181-0.66h0c1.604,0.583,3.377-0.243,3.961-1.846l11.567-31.767   c0.584-1.603-0.243-3.376-1.847-3.959l-22.383-8.143C158.648,188.073,156.875,188.899,156.291,190.502z M200,290.069H80   c-5.523,0-10,4.475-10,9.996c0,5.521,4.477,9.996,10,9.996h20c0,5.521,4.477,9.996,10,9.996v59.975h60v-59.975   c5.523,0,10-4.475,10-9.996h20c5.523,0,10-4.475,10-9.996C210,294.545,205.523,290.069,200,290.069z M390,410.02H70v19.988   c0,5.523,4.477,10,10,10h300c5.523,0,10-4.477,10-10V410.02z"/>
	<path id="XMLID_1115_" style="fill:#323436;" d="M178.698,216.642l-65.778-23.932l10.261-28.179l65.778,23.932L178.698,216.642z    M180,310.061L180,310.061h-80l0,0c0,5.521,4.475,9.996,9.996,9.996h60.008C175.525,320.057,180,315.582,180,310.061z"/>
	<path id="XMLID_1111_" style="fill:#D6CFBA;" d="M390,377.105v42.911H70v-42.911c0-4.526,1.799-8.866,5-12.066   c3.201-3.2,7.544-4.998,12.071-4.998H250v-99.959c0-11.041,8.954-19.992,20-19.992h10v-46.648l-73.317-24.429l-11.747,32.262   c-1.889,5.188-7.627,7.862-12.817,5.974l-65.779-23.932c-5.19-1.888-7.866-7.624-5.977-12.812l27.362-75.145   c3.778-10.375,15.255-15.725,25.634-11.949l46.985,17.094c9.683,3.523,14.983,13.743,12.585,23.522l104.556,19.907   c18.866,3.592,32.516,20.08,32.516,39.277v6.897v29.988v22.688c5.972,3.458,10,9.9,10,17.295v99.959h2.929   c4.528,0,8.87,1.798,12.071,4.998C388.201,368.239,390,372.579,390,377.105z"/>
	<path id="XMLID_1132_" style="fill:#4A4C4E;" d="M214.955,155.27l-87.49-31.729l3.42-9.393l87.49,31.729L214.955,155.27z"/>
	<path id="XMLID_1131_" style="fill:#AEA99A;" d="M224.735,132.644v42.384l-18.052-6.015l15.614-42.883   c0.001-0.004,0.002-0.008,0.004-0.012C223.824,127.883,224.735,130.171,224.735,132.644z M360,230.094h-80v9.996h80V230.094z    M370,350.045H250v9.996h120V350.045z"/>
	<path id="XMLID_1760_" style="fill:#323436;" d="M355,295.067c0,24.843-20.147,44.982-45,44.982s-45-20.139-45-44.982   c0-24.843,20.147-44.982,45-44.982S355,270.225,355,295.067z"/>
	<path id="XMLID_1231_" style="fill:#4A4C4E;" d="M345,295.067c0,19.322-15.67,34.986-35,34.986s-35-15.664-35-34.986   c0-19.322,15.67-34.986,35-34.986S345,275.745,345,295.067z"/>
</g>















</svg>